<?xml version="1.0" encoding="UTF-8" standalone="no"?>
<!-- Created with Inkscape (http://www.inkscape.org/) -->

<svg
   width="135.13766mm"
   height="132.01752mm"
   viewBox="0 0 135.13766 132.01752"
   version="1.1"
   id="svg5"
   xml:space="preserve"
   xmlns:inkscape="http://www.inkscape.org/namespaces/inkscape"
   xmlns:sodipodi="http://sodipodi.sourceforge.net/DTD/sodipodi-0.dtd"
   xmlns="http://www.w3.org/2000/svg"
   xmlns:svg="http://www.w3.org/2000/svg"><sodipodi:namedview
     id="namedview7"
     pagecolor="#ffffff"
     bordercolor="#000000"
     borderopacity="0.25"
     inkscape:showpageshadow="2"
     inkscape:pageopacity="0.0"
     inkscape:pagecheckerboard="0"
     inkscape:deskcolor="#d1d1d1"
     inkscape:document-units="mm"
     showgrid="false" /><defs
     id="defs2" /><g
     inkscape:label="Camada 1"
     inkscape:groupmode="layer"
     id="layer1"
     transform="translate(-48.133802,-85.143842)"><path
       style="fill:#d9d9d9;fill-opacity:1;stroke-width:0.264583"
       d="m 94.542723,217.09869 c -1.28549,-0.25076 -6.78708,-2.54016 -9.88498,-4.11347 -16.250353,-8.25295 -29.08705,-23.91112 -34.109157,-41.60626 -1.740879,-6.13391 -2.408452,-11.29077 -2.414709,-18.65313 -0.0051,-6.04245 0.250101,-8.73594 1.324877,-13.98136 5.004261,-24.42316 23.958537,-44.609566 48.099049,-51.225746 13.795817,-3.78102 29.576847,-3.01487 42.573387,2.06686 15.82754,6.18869 28.56189,17.796796 36.17954,32.979786 3.48079,6.93768 5.58709,13.89318 6.64956,21.95838 0.41715,3.16663 0.41432,13.0828 -0.005,16.40416 -1.32357,10.49168 -4.79195,20.05378 -10.34911,28.53183 -8.0231,12.24009 -18.90535,21.16658 -32.15856,26.379 -4.08916,1.60825 -5.55308,1.70278 -6.8164,0.44016 l -0.85652,-0.85604 -0.16031,-11.96779 c -0.17158,-12.80941 -0.23779,-13.48001 -1.6421,-16.63347 -0.34773,-0.78085 -1.11902,-2.03217 -1.71397,-2.7807 l -1.08172,-1.36097 2.16676,-0.30327 c 6.92663,-0.96948 12.32251,-2.86792 16.97826,-5.97348 5.66189,-3.7767 9.1506,-9.63785 10.8649,-18.25339 0.56413,-2.83512 0.80768,-10.79391 0.40837,-13.34468 -0.68078,-4.34885 -2.83234,-9.17093 -5.52912,-12.39195 l -1.06244,-1.26897 0.6504,-2.23991 c 1.15474,-3.97679 0.8469,-9.55348 -0.7774,-14.08286 -0.51545,-1.43733 -0.68154,-1.64551 -1.4762,-1.85038 -2.45866,-0.63382 -9.43626,1.92343 -15.48578,5.67546 -1.50699,0.93467 -2.31362,1.28081 -2.79106,1.19769 -0.36933,-0.0643 -1.87864,-0.37131 -3.35402,-0.68226 -8.43934,-1.77866 -17.68104,-1.77866 -26.12038,0 -1.47539,0.31095 -2.991797,0.61901 -3.369797,0.68458 -0.49544,0.0859 -1.21127,-0.21666 -2.56446,-1.08403 -5.39483,-3.458 -13.03321,-6.25389 -15.84088,-5.79827 -0.85265,0.13837 -0.91374,0.22927 -1.54521,2.29956 -1.02404,3.35728 -1.28343,5.07362 -1.26315,8.3579 0.0151,2.43858 0.15042,3.48582 0.68176,5.27446 l 0.66296,2.23177 -1.01844,1.20782 c -2.672296,3.16921 -4.889903,8.13512 -5.568405,12.46939 -0.399879,2.55442 -0.155368,10.51489 0.409807,13.34193 1.355488,6.78024 3.984718,12.17395 7.650018,15.69355 2.75496,2.64545 7.19779,5.213 11.54265,6.6706 1.88838,0.6335 6.93923,1.70453 9.318467,1.97597 l 1.51326,0.17264 -1.03038,1.30352 c -1.33854,1.69338 -2.305757,3.76538 -2.819367,6.03971 -0.40206,1.7804 -0.44025,1.83674 -1.51441,2.23457 -2.36877,0.87729 -3.60731,1.07167 -6.92277,1.08644 -3.39656,0.0151 -3.46199,0.004 -5.2302,-0.88319 -2.28985,-1.14903 -4.27007,-3.05978 -6.08281,-5.86941 -2.62572,-4.06969 -6.614638,-6.93688 -10.144871,-7.29202 -2.03104,-0.20432 -3.545247,0.23298 -3.545247,1.02386 0,0.60248 2.125824,2.75444 3.998845,4.04801 0.638291,0.44082 1.791727,1.63145 2.56319,2.64583 1.258181,1.65436 1.892214,2.82158 4.214232,7.75815 1.272961,2.7063 4.472011,5.19768 8.009151,6.23743 0.80036,0.23527 3.12208,0.56131 5.15937,0.72454 3.02634,0.24246 4.17623,0.22713 6.28386,-0.0838 l 2.57968,-0.38059 0.0652,4.64223 c 0.13108,9.3326 0.0729,9.83269 -1.24389,10.6955 -0.69633,0.45625 -2.11276,0.69187 -3.05464,0.50813 z"
       id="path2318" /></g></svg>
