<svg width="171" height="170" viewBox="0 0 171 170" fill="none" xmlns="http://www.w3.org/2000/svg">
<g clip-path="url(#clip0_225_2)">
<path d="M58.7248 169.919C57.0981 169.596 50.1366 166.648 46.2165 164.622C25.6537 153.995 9.41047 133.832 3.05561 111.046C0.852745 103.147 0.00801163 96.5064 9.41743e-05 87.0259C-0.00635925 79.2449 0.316568 75.7765 1.67656 69.022C8.00884 37.5721 31.9931 11.5779 62.54 3.05815C79.9969 -1.8107 99.9658 -0.824115 116.411 5.71967C136.439 13.6889 152.553 28.6367 162.192 48.188C166.597 57.1217 169.262 66.0783 170.606 76.464C171.134 80.5417 171.131 93.3108 170.6 97.5878C168.925 111.098 164.536 123.411 157.504 134.328C147.352 150.09 133.582 161.585 116.812 168.297C111.637 170.368 109.785 170.49 108.186 168.864L107.103 167.761L106.9 152.35C106.683 135.856 106.599 134.992 104.822 130.931C104.382 129.926 103.406 128.314 102.653 127.351L101.284 125.598L104.026 125.207C112.791 123.959 119.619 121.514 125.51 117.515C132.674 112.652 137.089 105.105 139.258 94.0103C139.972 90.3595 140.28 80.1109 139.775 76.8263C138.913 71.2262 136.191 65.0168 132.778 60.8691L131.434 59.235L132.257 56.3507C133.718 51.2297 133.329 44.0486 131.273 38.216C130.621 36.3652 130.411 36.0971 129.405 35.8333C126.294 35.0171 117.465 38.3101 109.81 43.1416C107.903 44.3452 106.882 44.791 106.278 44.6839C105.811 44.6011 103.901 44.2058 102.034 43.8054C91.3553 41.515 79.661 41.515 68.9821 43.8054C67.1152 44.2058 65.1964 44.6025 64.718 44.6869C64.0911 44.7975 63.1853 44.4079 61.473 43.291C54.6465 38.8381 44.9811 35.2378 41.4284 35.8245C40.3494 36.0027 40.2721 36.1197 39.4731 38.7857C38.1773 43.1089 37.8491 45.319 37.8747 49.5482C37.8938 52.6884 38.0651 54.0369 38.7374 56.3402L39.5763 59.214L38.2876 60.7694C34.9061 64.8504 32.1 71.245 31.2415 76.8263C30.7355 80.1156 31.0449 90.3664 31.76 94.0068C33.4752 102.738 36.8022 109.683 41.4402 114.216C44.9262 117.622 50.5481 120.928 56.046 122.805C58.4355 123.621 64.8267 125 67.8373 125.35L69.7522 125.572L68.4484 127.251C66.7546 129.431 65.5307 132.099 64.8808 135.028C64.3721 137.321 64.3237 137.393 62.9645 137.905C59.9671 139.035 58.3999 139.285 54.2046 139.304C49.9067 139.324 49.8239 139.31 47.5864 138.167C44.6889 136.688 42.1832 134.227 39.8894 130.609C36.5669 125.369 31.5194 121.676 27.0523 121.219C24.4823 120.956 22.5662 121.519 22.5662 122.538C22.5662 123.313 25.2562 126.084 27.6263 127.75C28.434 128.318 29.8935 129.851 30.8697 131.157C32.4618 133.288 33.264 134.791 36.2023 141.147C37.813 144.632 41.861 147.841 46.3369 149.18C47.3496 149.482 50.2875 149.902 52.8654 150.112C56.6949 150.425 58.1499 150.405 60.8169 150.005L64.0811 149.514L64.1636 155.492C64.3295 167.51 64.2559 168.154 62.5896 169.265C61.7085 169.853 59.9162 170.156 58.7244 169.919L58.7248 169.919Z" fill="#D9D9D9"/>
</g>
<defs>
<clipPath id="clip0_225_2">
<rect width="171" height="170" fill="white"/>
</clipPath>
</defs>
</svg>
