<svg width="164" height="188" viewBox="0 0 164 188" fill="none" xmlns="http://www.w3.org/2000/svg">
<path d="M152.286 11.75H11.6777C5.23482 11.75 0 17.0742 0 23.6102V164.39C0 170.926 5.23482 176.25 11.6777 176.25H152.286C158.729 176.25 164 170.926 164 164.39V23.6102C164 17.0742 158.729 11.75 152.286 11.75ZM49.5661 152.75H25.2589V74.2453H49.6027V152.75H49.5661ZM37.4125 63.5234C29.6152 63.5234 23.3188 57.1711 23.3188 49.3867C23.3188 41.6023 29.6152 35.25 37.4125 35.25C45.1732 35.25 51.5062 41.6023 51.5062 49.3867C51.5062 57.2078 45.2098 63.5234 37.4125 63.5234ZM140.681 152.75H116.374V114.562C116.374 105.456 116.191 93.743 103.745 93.743C91.0786 93.743 89.1384 103.657 89.1384 113.902V152.75H64.8313V74.2453H88.15V84.9672H88.4795C91.7375 78.7984 99.6813 72.2992 111.505 72.2992C136.105 72.2992 140.681 88.5656 140.681 109.716V152.75Z" fill="#D9D9D9"/>
</svg>
