<?xml version="1.0" encoding="UTF-8" standalone="no"?>
<!-- Created with Inkscape (http://www.inkscape.org/) -->

<svg
   width="26.459122mm"
   height="17.991669mm"
   viewBox="0 0 26.459122 17.991669"
   version="1.1"
   id="svg5"
   xml:space="preserve"
   xmlns:inkscape="http://www.inkscape.org/namespaces/inkscape"
   xmlns:sodipodi="http://sodipodi.sourceforge.net/DTD/sodipodi-0.dtd"
   xmlns="http://www.w3.org/2000/svg"
   xmlns:svg="http://www.w3.org/2000/svg"><sodipodi:namedview
     id="namedview7"
     pagecolor="#ffffff"
     bordercolor="#999999"
     borderopacity="1"
     inkscape:showpageshadow="0"
     inkscape:pageopacity="0"
     inkscape:pagecheckerboard="0"
     inkscape:deskcolor="#d1d1d1"
     inkscape:document-units="mm"
     showgrid="false" /><defs
     id="defs2" /><g
     inkscape:label="Layer 1"
     inkscape:groupmode="layer"
     id="layer1"
     transform="translate(-70.414354,-213.3314)"><path
       style="fill:#d9d9d9;fill-opacity:0.796078;stroke-width:0.264583"
       d="m 71.760953,231.12462 c 0.0126,-0.10914 2.04778,-1.9541 4.52265,-4.09992 l 4.49976,-3.90148 0.9616,0.79263 c 1.2943,1.06687 2.50441,1.06687 3.79871,0 l 0.9616,-0.79263 4.49976,3.90148 c 2.47486,2.14582 4.51006,3.99078 4.52265,4.09992 0.0126,0.10914 -5.33493,0.19844 -11.88337,0.19844 -6.54843,0 -11.89595,-0.0893 -11.88336,-0.19844 z m -1.16762,-1.03449 c -0.27943,-0.27943 -0.21266,-15.38328 0.0688,-15.55722 0.22056,-0.13632 9.23357,7.47043 9.23527,7.79431 7.1e-4,0.13777 -7.83697,7.02575 -8.65763,7.60857 -0.25753,0.18289 -0.54841,0.25235 -0.64642,0.15434 z m 21.29242,-3.72328 c -2.4716,-2.14904 -4.49381,-3.96687 -4.49381,-4.03963 0,-0.32284 9.01377,-7.93078 9.23458,-7.79431 0.14367,0.0888 0.24696,3.34874 0.24696,7.79431 0,4.44558 -0.10329,7.70553 -0.24696,7.79432 -0.13583,0.084 -2.26918,-1.60566 -4.74077,-3.75469 z m -14.38241,-7.66628 c -3.14552,-2.73477 -5.72952,-5.0616 -5.7422,-5.17074 -0.0127,-0.10914 5.33474,-0.19844 11.88317,-0.19844 6.54844,0 11.89601,0.0893 11.8835,0.19844 -0.0447,0.38986 -11.29295,9.98955 -11.79409,10.06553 -0.3456,0.0524 -2.36423,-1.5335 -6.23038,-4.89479 z"
       id="path125"
       inkscape:export-filename="mail-logo.svg"
       inkscape:export-xdpi="96"
       inkscape:export-ydpi="96" /></g></svg>
