<svg width="170" height="174" viewBox="0 0 170 174" fill="none" xmlns="http://www.w3.org/2000/svg">
<path d="M152.525 51.5597C152.633 53.1053 152.633 54.6513 152.633 56.1969C152.633 103.34 117.576 157.66 53.5025 157.66C33.7626 157.66 15.4252 151.808 0 141.651C2.80467 141.982 5.50109 142.093 8.41367 142.093C24.7015 142.093 39.6953 136.462 51.6687 126.857C36.3514 126.525 23.5151 116.258 19.0925 102.126C21.25 102.457 23.4072 102.678 25.6727 102.678C28.8007 102.678 31.9291 102.236 34.8414 101.463C18.877 98.1509 6.90326 83.7983 6.90326 66.4646V66.0231C11.5414 68.6729 16.9353 70.3289 22.6518 70.5495C13.2673 64.1458 7.11908 53.2158 7.11908 40.8502C7.11908 34.226 8.84465 28.1536 11.8651 22.8541C29.0162 44.4937 54.7968 58.6254 83.7051 60.1713C83.1659 57.5216 82.8421 54.7617 82.8421 52.0015C82.8421 32.349 98.3752 16.3403 117.683 16.3403C127.715 16.3403 136.776 20.6462 143.14 27.6017C151.014 26.0561 158.565 23.075 165.253 18.9901C162.664 27.2707 157.163 34.2263 149.936 38.6422C156.948 37.8698 163.743 35.882 169.999 33.1222C165.254 40.1878 159.321 46.4807 152.525 51.5597Z" fill="#D9D9D9"/>
</svg>
